<svg xmlns="http://www.w3.org/2000/svg" xmlns:xlink="http://www.w3.org/1999/xlink" viewBox="0 0 398.1 373.9"><defs><linearGradient id="a" x1="128.9" x2="249.4" y1="21.8" y2="358.8" gradientUnits="userSpaceOnUse"><stop offset=".1" stop-color="#f9be89"/><stop offset="1" stop-color="#bc764b"/></linearGradient><linearGradient xlink:href="#a" id="b" x1="142.9" x2="267.8" y1="-13.3" y2="336.1"/><linearGradient xlink:href="#a" id="c" x1="76.7" x2="201.6" y1="25.3" y2="374.8"/><linearGradient xlink:href="#a" id="d" x1="103.7" x2="228.7" y1="15.7" y2="365.1"/><linearGradient xlink:href="#a" id="e" x1="82.9" x2="207.8" y1="8.1" y2="357.5"/><linearGradient xlink:href="#a" id="f" x1="319" x2="434.5" y1="-41.8" y2="281.3"/></defs><path fill="url(#a)" d="M398.1 336.2h-13V107.7L199 14.5 12.9 107.7v228.5H0V99.7L199 0l199.1 99.7v236.5z"/><path fill="url(#b)" d="M45.5 137.2h307v12.9h-307z"/><path fill="url(#c)" d="M2.3 361h393.4v12.9H2.3z"/><path fill="url(#d)" d="M199 374a91.8 91.8 0 1 1 91.8-91.9A92 92 0 0 1 199 374Zm0-170.7a78.9 78.9 0 1 0 79 78.7 79 79 0 0 0-78.9-78.8Z"/><path fill="url(#e)" d="M161.7 143.7h-12.9v-24.8h-48.3v24.8h-13v-37.8h74.2v37.8z"/><path fill="url(#f)" d="M398.1 169.5h-13V28h-56.4v85.4h-12.9V15.1h82.3v154.4z"/></svg>